<?xml version="1.0" encoding="utf-8"?>
<!-- Generator: Adobe Illustrator 15.0.2, SVG Export Plug-In . SVG Version: 6.00 Build 0)  -->
<!DOCTYPE svg PUBLIC "-//W3C//DTD SVG 1.1//EN" "http://www.w3.org/Graphics/SVG/1.1/DTD/svg11.dtd">
<svg version="1.1" id="レイヤー_1" xmlns="http://www.w3.org/2000/svg" xmlns:xlink="http://www.w3.org/1999/xlink" x="0px"
	 y="0px" width="16px" height="16px" viewBox="0 0 16 16" enable-background="new 0 0 16 16" xml:space="preserve">
<linearGradient id="SVGID_1_" gradientUnits="userSpaceOnUse" x1="7.8599" y1="16.0547" x2="7.8599" y2="0.0547" gradientTransform="matrix(1 0 0 -1 0.1401 16.0547)">
	<stop  offset="0" style="stop-color:#88BF4D"/>
	<stop  offset="1" style="stop-color:#699A31"/>
</linearGradient>
<polygon fill="url(#SVGID_1_)" points="0,0 0,16 6.896,16 16,16 16,6.896 16,0 "/>
<path fill="#FFFFFF" d="M14.275,9.836c2.001-2.002,2.613-5.44-0.089-8.144C13.06,0.566,11.649,0.002,10.24,0h-0.002
	c-1.41-0.002-2.818,0.558-3.94,1.68C5.626,2.352,5.116,3.216,4.852,4.167C3.121,4.141,1.384,4.811,0,6.176v9.728
	C0.031,15.937,0.061,15.969,0.092,16h6.805h2.94c1.183-1.258,1.93-2.938,1.946-4.713C12.686,11.048,13.545,10.567,14.275,9.836z
	 M10.609,9.1c-0.299,0.5-0.266,0.558-0.253,1.494c0.017,1.061-0.383,2.16-1.383,3.161c-1.53,1.529-4.354,1.871-6.432-0.207
	C0.904,11.91,0.135,9.154,2.317,6.972c0.81-0.809,1.975-1.287,3.199-1.265c0.852,0.014,0.951,0.046,1.499-0.203
	c0.549-0.25,0.311-0.805,0.64-1.785c0.159-0.478,0.444-0.947,0.888-1.393c1.187-1.186,3.371-1.458,4.971,0.142
	c1.304,1.303,1.856,3.381,0.153,5.084c-0.385,0.385-0.876,0.669-1.418,0.823C11.378,8.626,10.909,8.599,10.609,9.1z"/>
</svg>
